<?xml version="1.0" encoding="UTF-8"?>
<!DOCTYPE svg PUBLIC "-//W3C//DTD SVG 1.1//EN" "http://www.w3.org/Graphics/SVG/1.1/DTD/svg11.dtd">
<svg xmlns="http://www.w3.org/2000/svg" version="1.1" width="515px" height="484px" style="shape-rendering:geometricPrecision; text-rendering:geometricPrecision; image-rendering:optimizeQuality; fill-rule:evenodd; clip-rule:evenodd" xmlns:xlink="http://www.w3.org/1999/xlink">
<g><path style="opacity:1" fill="#ebebeb" d="M 300.5,32.5 C 302.438,34.1628 304.772,34.8294 307.5,34.5C 346.303,44.6793 379.303,64.346 406.5,93.5C 407.167,94.8333 408.167,95.8333 409.5,96.5C 410.08,98.7488 411.413,100.415 413.5,101.5C 413.833,102.5 414.5,103.167 415.5,103.5C 415.738,105.404 416.738,106.738 418.5,107.5C 418.833,108.5 419.5,109.167 420.5,109.5C 421.338,109.842 421.672,110.508 421.5,111.5C 422.419,114.089 424.086,116.089 426.5,117.5C 427.338,117.842 427.672,118.508 427.5,119.5C 427.427,121.027 428.094,122.027 429.5,122.5C 429.427,124.027 430.094,125.027 431.5,125.5C 431.738,127.404 432.738,128.738 434.5,129.5C 434.5,129.833 434.5,130.167 434.5,130.5C 434.427,132.027 435.094,133.027 436.5,133.5C 438.008,135.181 439.008,137.181 439.5,139.5C 439.427,141.027 440.094,142.027 441.5,142.5C 442.338,142.842 442.672,143.508 442.5,144.5C 442.66,146.153 443.326,147.486 444.5,148.5C 445.537,149.93 446.204,151.597 446.5,153.5C 446.66,155.153 447.326,156.486 448.5,157.5C 450.259,165.436 452.592,173.102 455.5,180.5C 456.434,181.568 456.768,182.901 456.5,184.5C 456.232,186.099 456.566,187.432 457.5,188.5C 457.5,188.833 457.5,189.167 457.5,189.5C 457.565,192.428 458.232,195.095 459.5,197.5C 461.117,202.916 461.784,208.583 461.5,214.5C 461.342,217.902 461.676,221.236 462.5,224.5C 462.5,224.833 462.5,225.167 462.5,225.5C 462.649,237.852 462.315,250.185 461.5,262.5C 460.539,264.265 460.205,266.265 460.5,268.5C 459.883,268.611 459.383,268.944 459,269.5C 457.216,279.353 454.716,289.02 451.5,298.5C 451.737,301.063 452.237,301.063 453,298.5C 453.483,299.448 453.649,300.448 453.5,301.5C 453.5,301.833 453.5,302.167 453.5,302.5C 452.262,304.214 451.595,306.214 451.5,308.5C 449.654,311.54 448.321,314.873 447.5,318.5C 447.5,318.833 447.5,319.167 447.5,319.5C 446.326,320.514 445.66,321.847 445.5,323.5C 445.293,326.241 444.293,328.574 442.5,330.5C 440.992,332.181 439.992,334.181 439.5,336.5C 438.89,338.434 437.89,340.101 436.5,341.5C 435.298,339.055 435.631,336.722 437.5,334.5C 437.154,333.304 436.654,333.304 436,334.5C 431.648,343.216 426.815,351.549 421.5,359.5C 417.5,363.833 413.5,368.167 409.5,372.5C 409.167,372.5 408.833,372.5 408.5,372.5C 410.252,370.754 411.585,368.754 412.5,366.5C 414.262,365.738 415.262,364.404 415.5,362.5C 431.334,342.5 442.667,320.166 449.5,295.5C 451.25,291.817 451.917,287.817 451.5,283.5C 451.5,283.167 451.5,282.833 451.5,282.5C 452.404,281.791 452.737,280.791 452.5,279.5C 452.5,279.167 452.5,278.833 452.5,278.5C 453.451,277.081 453.784,275.415 453.5,273.5C 453.5,273.167 453.5,272.833 453.5,272.5C 455.627,265.46 456.794,258.126 457,250.5C 457.5,239.172 457.667,227.838 457.5,216.5C 457.034,208.405 455.867,200.405 454,192.5C 453.667,195.167 453.333,197.833 453,200.5C 451.514,191.87 449.347,183.537 446.5,175.5C 440.682,154.53 431.516,135.197 419,117.5C 425.169,128.832 431.169,140.499 437,152.5C 440.333,160.334 443.167,168.334 445.5,176.5C 453.02,200.592 456.02,225.259 454.5,250.5C 453.053,257.078 452.387,263.745 452.5,270.5C 452.5,270.833 452.5,271.167 452.5,271.5C 450.547,276.573 449.214,281.906 448.5,287.5C 447.076,289.515 446.41,291.848 446.5,294.5C 446.672,295.492 446.338,296.158 445.5,296.5C 443.39,300.502 442.057,304.835 441.5,309.5C 436.71,319.146 431.71,328.812 426.5,338.5C 423.588,343.263 420.421,347.929 417,352.5C 416.51,353.793 416.343,355.127 416.5,356.5C 416.5,356.833 416.5,357.167 416.5,357.5C 415.833,357.5 415.5,357.833 415.5,358.5C 415.5,358.833 415.5,359.167 415.5,359.5C 409.863,366.142 404.196,372.808 398.5,379.5C 397.5,379.833 396.833,380.5 396.5,381.5C 395.833,381.5 395.5,381.833 395.5,382.5C 394.833,382.5 394.5,382.833 394.5,383.5C 393.5,383.833 392.833,384.5 392.5,385.5C 391.5,385.833 390.833,386.5 390.5,387.5C 385.833,391.167 381.167,394.833 376.5,398.5C 375.508,398.328 374.842,398.662 374.5,399.5C 374.5,399.833 374.5,400.167 374.5,400.5C 372.77,401.026 371.436,402.026 370.5,403.5C 369.833,403.5 369.5,403.833 369.5,404.5C 368.508,404.328 367.842,404.662 367.5,405.5C 366.833,405.5 366.5,405.833 366.5,406.5C 365.391,406.557 364.391,406.89 363.5,407.5C 362.508,407.328 361.842,407.662 361.5,408.5C 361.167,409.167 360.833,409.833 360.5,410.5C 359.833,410.5 359.167,410.5 358.5,410.5C 357.833,410.5 357.5,410.833 357.5,411.5C 356.833,411.5 356.5,411.833 356.5,412.5C 355.391,412.557 354.391,412.89 353.5,413.5C 352.448,413.649 351.448,413.483 350.5,413C 351.305,411.887 351.972,410.721 352.5,409.5C 354.027,409.573 355.027,408.906 355.5,407.5C 356.899,406.11 358.566,405.11 360.5,404.5C 362.404,404.262 363.738,403.262 364.5,401.5C 366.55,399.453 368.883,397.786 371.5,396.5C 373.749,395.92 375.415,394.587 376.5,392.5C 379.089,391.581 381.089,389.914 382.5,387.5C 386.833,382.5 391.5,377.833 396.5,373.5C 398.587,372.415 399.92,370.749 400.5,368.5C 402.262,367.738 403.262,366.404 403.5,364.5C 403.167,363.167 402.833,363.167 402.5,364.5C 401.833,364.5 401.5,364.833 401.5,365.5C 401.167,365.5 400.833,365.5 400.5,365.5C 399.5,365.5 398.5,365.5 397.5,365.5C 399.859,362.149 402.192,358.815 404.5,355.5C 405.906,355.027 406.573,354.027 406.5,352.5C 408.262,351.738 409.262,350.404 409.5,348.5C 410.906,348.027 411.573,347.027 411.5,345.5C 412.906,345.027 413.573,344.027 413.5,342.5C 413.328,341.508 413.662,340.842 414.5,340.5C 415.906,340.027 416.573,339.027 416.5,337.5C 416.328,336.508 416.662,335.842 417.5,335.5C 418.906,335.027 419.573,334.027 419.5,332.5C 420.326,329.515 421.659,326.849 423.5,324.5C 425.625,321.912 426.958,318.912 427.5,315.5C 428.906,315.027 429.573,314.027 429.5,312.5C 429.5,312.167 429.5,311.833 429.5,311.5C 431.815,308.092 433.482,304.259 434.5,300C 436.227,295.99 437.227,291.823 437.5,287.5C 438.185,282.761 439.185,278.095 440.5,273.5C 441.222,273.082 441.722,272.416 442,271.5C 442.499,267.514 442.666,263.514 442.5,259.5C 442.182,254.968 442.515,250.634 443.5,246.5C 444.659,235.674 444.826,224.674 444,213.5C 443.911,208.234 443.077,203.234 441.5,198.5C 440.549,197.081 440.216,195.415 440.5,193.5C 440.663,191.143 440.497,188.81 440,186.5C 439.617,185.944 439.117,185.611 438.5,185.5C 436.041,176.788 433.374,168.122 430.5,159.5C 430.771,157.62 430.104,156.287 428.5,155.5C 427.662,155.158 427.328,154.492 427.5,153.5C 427.771,151.62 427.104,150.287 425.5,149.5C 425.5,149.167 425.5,148.833 425.5,148.5C 425.573,146.973 424.906,145.973 423.5,145.5C 420.17,139.508 416.837,133.508 413.5,127.5C 413.446,125.368 412.446,124.035 410.5,123.5C 408.179,120.204 405.846,116.871 403.5,113.5C 403.446,111.368 402.446,110.035 400.5,109.5C 400.446,107.368 399.446,106.035 397.5,105.5C 390.887,99.5541 384.554,93.2208 378.5,86.5C 378.027,85.0937 377.027,84.427 375.5,84.5C 314.708,37.2739 248.375,27.7739 176.5,56C 159.154,63.9977 143.154,73.9977 128.5,86C 122.93,92.0748 116.93,97.5748 110.5,102.5C 109.094,102.973 108.427,103.973 108.5,105.5C 94.6395,121.883 83.3062,139.883 74.5,159.5C 72.9081,160.602 72.0748,159.935 72,157.5C 68.4712,164.921 65.6379,172.587 63.5,180.5C 59.9004,192.906 57.567,205.572 56.5,218.5C 56.0578,222.154 55.7244,225.821 55.5,229.5C 54.5128,224.695 54.1795,219.695 54.5,214.5C 55.0848,208.822 55.7514,203.155 56.5,197.5C 57.1667,193.167 57.8333,188.833 58.5,184.5C 59.3382,184.158 59.6716,183.492 59.5,182.5C 60.3382,182.158 60.6716,181.492 60.5,180.5C 60.5,180.167 60.5,179.833 60.5,179.5C 61.9313,178.22 62.5979,176.553 62.5,174.5C 64.7207,168.682 67.054,162.848 69.5,157C 69.4519,155.967 69.1186,155.634 68.5,156C 67.8534,157.609 67.02,159.109 66,160.5C 66.1349,158.575 66.3016,156.575 66.5,154.5C 68.8337,152.824 69.8337,150.491 69.5,147.5C 70.3257,144.515 71.659,141.849 73.5,139.5C 75.4077,138.514 76.4077,136.848 76.5,134.5C 76.3284,133.508 76.6618,132.842 77.5,132.5C 79.4077,131.514 80.4077,129.848 80.5,127.5C 80.3284,126.508 80.6618,125.842 81.5,125.5C 82.9063,125.027 83.573,124.027 83.5,122.5C 84.9063,122.027 85.573,121.027 85.5,119.5C 86.9063,119.027 87.573,118.027 87.5,116.5C 89.2624,115.738 90.2624,114.404 90.5,112.5C 90.7376,110.596 91.7376,109.262 93.5,108.5C 95.5869,107.415 96.9202,105.749 97.5,103.5C 99.2624,102.738 100.262,101.404 100.5,99.5C 100.833,98.5 101.5,97.8333 102.5,97.5C 105.243,95.7607 107.243,93.4274 108.5,90.5C 108.833,89.5 109.5,88.8333 110.5,88.5C 114.771,85.8991 118.437,82.5658 121.5,78.5C 134.425,66.0306 149.091,56.0306 165.5,48.5C 167.967,48.2451 169.967,47.2451 171.5,45.5C 175.507,42.9969 179.84,41.3303 184.5,40.5C 188.785,39.7384 192.785,38.4051 196.5,36.5C 198.515,35.0762 200.848,34.4095 203.5,34.5C 206.152,34.5905 208.485,33.9238 210.5,32.5C 214.36,31.1958 218.36,30.5291 222.5,30.5C 227.414,30.6382 232.081,29.9715 236.5,28.5C 258.012,26.3888 279.345,27.7221 300.5,32.5 Z M 446.5,294.5 C 446.833,294.5 447.167,294.5 447.5,294.5C 447.139,298.915 445.806,302.915 443.5,306.5C 444.374,303.211 445.041,299.877 445.5,296.5C 446.338,296.158 446.672,295.492 446.5,294.5 Z M 440.5,312.5 C 441.797,313.849 441.63,315.182 440,316.5C 439.805,315.181 439.972,313.847 440.5,312.5 Z"/></g>
<g><path style="opacity:0.945" fill="#a9a9a9" d="M 236.5,28.5 C 232.081,29.9715 227.414,30.6382 222.5,30.5C 226.9,28.8958 231.566,28.2291 236.5,28.5 Z"/></g>
<g><path style="opacity:0.804" fill="#979797" d="M 210.5,32.5 C 208.485,33.9238 206.152,34.5905 203.5,34.5C 205.515,33.0762 207.848,32.4095 210.5,32.5 Z"/></g>
<g><path style="opacity:0.627" fill="#7d7d7d" d="M 300.5,32.5 C 303.067,32.7215 305.401,33.3882 307.5,34.5C 304.772,34.8294 302.438,34.1628 300.5,32.5 Z"/></g>
<g><path style="opacity:0.431" fill="#929292" d="M 276.5,32.5 C 297.461,33.0049 317.461,38.1716 336.5,48C 326.621,44.7071 316.621,41.3738 306.5,38C 296.627,35.4103 286.627,33.577 276.5,32.5 Z"/></g>
<g><path style="opacity:0.78" fill="#8a8a8a" d="M 196.5,36.5 C 192.785,38.4051 188.785,39.7384 184.5,40.5C 184.611,39.8826 184.944,39.3826 185.5,39C 189.112,37.85 192.778,37.0166 196.5,36.5 Z"/></g>
<g><path style="opacity:0.49" fill="#6b6b6b" d="M 171.5,45.5 C 169.967,47.2451 167.967,48.2451 165.5,48.5C 167.033,46.7549 169.033,45.7549 171.5,45.5 Z"/></g>
<g><path style="opacity:0.565" fill="#a5a5a5" d="M 367.5,66.5 C 364.222,65.1911 361.222,63.3578 358.5,61C 359.908,60.6848 361.241,61.0181 362.5,62C 364.618,63.0491 366.284,64.5491 367.5,66.5 Z"/></g>
<g><path style="opacity:0.502" fill="#999999" d="M 367.5,66.5 C 370.37,67.4333 372.704,69.1 374.5,71.5C 371.63,70.5667 369.296,68.9 367.5,66.5 Z"/></g>
<g><path style="opacity:0.525" fill="#999999" d="M 374.5,71.5 C 379.043,73.3717 382.71,76.3717 385.5,80.5C 381.537,77.8715 377.871,74.8715 374.5,71.5 Z"/></g>
<g><path style="opacity:0.714" fill="#878787" d="M 375.5,84.5 C 377.027,84.427 378.027,85.0937 378.5,86.5C 376.973,86.573 375.973,85.9063 375.5,84.5 Z"/></g>
<g><path style="opacity:0.824" fill="#9e9e9e" d="M 121.5,78.5 C 118.437,82.5658 114.771,85.8991 110.5,88.5C 113.563,84.4342 117.229,81.1009 121.5,78.5 Z"/></g>
<g><path style="opacity:0.62" fill="#a6a6a6" d="M 385.5,80.5 C 390.072,83.5633 394.239,87.23 398,91.5C 398.667,92.1667 398.667,92.8333 398,93.5C 393.581,89.2507 389.414,84.9173 385.5,80.5 Z"/></g>
<g><path style="opacity:0.678" fill="#7e7e7e" d="M 108.5,90.5 C 107.243,93.4274 105.243,95.7607 102.5,97.5C 103.757,94.5726 105.757,92.2393 108.5,90.5 Z"/></g>
<g><path style="opacity:0.008" fill="#3a3a3a" d="M 406.5,93.5 C 408.5,93.5 409.5,94.5 409.5,96.5C 408.167,95.8333 407.167,94.8333 406.5,93.5 Z"/></g>
<g><path style="opacity:0.671" fill="#6f6f6f" d="M 409.5,96.5 C 411.587,97.5846 412.92,99.2512 413.5,101.5C 411.413,100.415 410.08,98.7488 409.5,96.5 Z"/></g>
<g><path style="opacity:1" fill="#e9e9e9" d="M 360.5,131.5 C 359.5,131.5 358.5,131.5 357.5,131.5C 357.993,129.194 358.326,126.861 358.5,124.5C 358.5,124.167 358.5,123.833 358.5,123.5C 359.117,123.389 359.617,123.056 360,122.5C 360.167,121.167 360.333,119.833 360.5,118.5C 360.639,116.117 359.972,114.117 358.5,112.5C 356.552,109.528 353.886,107.528 350.5,106.5C 349.207,105.842 347.707,105.508 346,105.5C 343.456,105.336 341.29,106.003 339.5,107.5C 321.128,113.353 304.128,121.853 288.5,133C 238.632,169.685 198.632,214.852 168.5,268.5C 166.127,270.579 164.794,273.246 164.5,276.5C 164.34,278.153 163.674,279.486 162.5,280.5C 160.707,282.426 159.707,284.759 159.5,287.5C 158.069,288.78 157.402,290.447 157.5,292.5C 154.456,297.662 152.789,303.328 152.5,309.5C 150.549,314.184 149.549,319.184 149.5,324.5C 148.349,329.65 148.183,334.984 149,340.5C 149.278,341.416 149.778,342.082 150.5,342.5C 150.5,342.833 150.5,343.167 150.5,343.5C 150.12,345.698 150.787,347.365 152.5,348.5C 152.025,351.313 153.025,353.313 155.5,354.5C 156.338,354.842 156.672,355.508 156.5,356.5C 157.833,359.833 160.167,362.167 163.5,363.5C 164.872,364.512 166.205,365.512 167.5,366.5C 167.821,368.048 168.821,368.715 170.5,368.5C 184.036,375.212 198.37,377.378 213.5,375C 221.574,373.814 229.574,372.314 237.5,370.5C 241.708,370.323 245.374,368.99 248.5,366.5C 264.509,360.663 280.176,353.996 295.5,346.5C 297.027,346.573 298.027,345.906 298.5,344.5C 301.331,342.583 304.331,340.917 307.5,339.5C 309.027,339.573 310.027,338.906 310.5,337.5C 313.894,334.779 317.561,332.446 321.5,330.5C 323.404,330.262 324.738,329.262 325.5,327.5C 327.878,325.122 330.545,323.122 333.5,321.5C 336.764,319.906 339.431,317.573 341.5,314.5C 342.833,314.5 344.167,314.5 345.5,314.5C 345.5,316.167 345.5,317.833 345.5,319.5C 313.274,352.123 274.608,373.623 229.5,384C 214.464,386.976 199.464,387.142 184.5,384.5C 182.485,383.076 180.152,382.41 177.5,382.5C 173.407,381.618 169.74,379.951 166.5,377.5C 166.027,376.094 165.027,375.427 163.5,375.5C 163.027,374.094 162.027,373.427 160.5,373.5C 159.5,373.167 158.833,372.5 158.5,371.5C 156.452,368.785 154.118,366.452 151.5,364.5C 151.446,362.368 150.446,361.035 148.5,360.5C 146.992,358.819 145.992,356.819 145.5,354.5C 145.771,352.62 145.104,351.287 143.5,350.5C 142.659,348.621 142.325,346.621 142.5,344.5C 142.399,334.148 142.733,323.815 143.5,313.5C 143.42,310.219 144.087,307.219 145.5,304.5C 146.924,302.485 147.59,300.152 147.5,297.5C 148.924,295.485 149.59,293.152 149.5,290.5C 151.834,288.824 152.834,286.491 152.5,283.5C 152.5,283.167 152.5,282.833 152.5,282.5C 154.213,281.365 154.88,279.698 154.5,277.5C 155.895,273.71 157.562,270.043 159.5,266.5C 160.906,266.027 161.573,265.027 161.5,263.5C 161.5,263.167 161.5,262.833 161.5,262.5C 163.176,261.817 163.843,260.483 163.5,258.5C 164.906,258.027 165.573,257.027 165.5,255.5C 165.328,254.508 165.662,253.842 166.5,253.5C 168.408,252.514 169.408,250.848 169.5,248.5C 169.328,247.508 169.662,246.842 170.5,246.5C 171.906,246.027 172.573,245.027 172.5,243.5C 172.328,242.508 172.662,241.842 173.5,241.5C 174.906,241.027 175.573,240.027 175.5,238.5C 176.906,238.027 177.573,237.027 177.5,235.5C 177.328,234.508 177.662,233.842 178.5,233.5C 179.906,233.027 180.573,232.027 180.5,230.5C 181.906,230.027 182.573,229.027 182.5,227.5C 183.906,227.027 184.573,226.027 184.5,224.5C 186.262,223.738 187.262,222.404 187.5,220.5C 188.906,220.027 189.573,219.027 189.5,217.5C 191.262,216.738 192.262,215.404 192.5,213.5C 194.016,210.467 196.016,207.8 198.5,205.5C 200.262,204.738 201.262,203.404 201.5,201.5C 202.906,201.027 203.573,200.027 203.5,198.5C 203.833,197.5 204.5,196.833 205.5,196.5C 207.587,195.415 208.92,193.749 209.5,191.5C 211.262,190.738 212.262,189.404 212.5,187.5C 212.833,186.5 213.5,185.833 214.5,185.5C 216.587,184.415 217.92,182.749 218.5,180.5C 218.833,179.5 219.5,178.833 220.5,178.5C 222.587,177.415 223.92,175.749 224.5,173.5C 226.167,171.167 228.167,169.167 230.5,167.5C 238.167,160.5 245.5,153.167 252.5,145.5C 253.911,143.086 255.911,141.419 258.5,140.5C 261.089,139.581 263.089,137.914 264.5,135.5C 266.749,134.92 268.415,133.587 269.5,131.5C 271.749,130.92 273.415,129.587 274.5,127.5C 279.278,123.06 284.612,119.393 290.5,116.5C 292.027,116.573 293.027,115.906 293.5,114.5C 299.57,110.132 306.236,106.798 313.5,104.5C 317.767,103.744 321.767,102.411 325.5,100.5C 328.152,100.59 330.485,99.9238 332.5,98.5C 341.671,95.4363 350.671,95.9363 359.5,100C 368.52,107.766 370.353,116.932 365,127.5C 363.629,129.041 362.129,130.375 360.5,131.5 Z"/></g>
<g><path style="opacity:0.769" fill="#8f8f8f" d="M 332.5,98.5 C 330.485,99.9238 328.152,100.59 325.5,100.5C 327.515,99.0762 329.848,98.4095 332.5,98.5 Z"/></g>
<g><path style="opacity:0.761" fill="#858585" d="M 100.5,99.5 C 100.262,101.404 99.2624,102.738 97.5,103.5C 97.7376,101.596 98.7376,100.262 100.5,99.5 Z"/></g>
<g><path style="opacity:0.004" fill="#404040" d="M 413.5,101.5 C 414.833,101.5 415.5,102.167 415.5,103.5C 414.5,103.167 413.833,102.5 413.5,101.5 Z"/></g>
<g><path style="opacity:0.753" fill="#8d8d8d" d="M 325.5,100.5 C 321.767,102.411 317.767,103.744 313.5,104.5C 317.085,102.194 321.085,100.861 325.5,100.5 Z"/></g>
<g><path style="opacity:0.004" fill="#484848" d="M 110.5,102.5 C 110.573,104.027 109.906,105.027 108.5,105.5C 108.427,103.973 109.094,102.973 110.5,102.5 Z"/></g>
<g><path style="opacity:0.643" fill="#747474" d="M 415.5,103.5 C 417.262,104.262 418.262,105.596 418.5,107.5C 416.738,106.738 415.738,105.404 415.5,103.5 Z"/></g>
<g><path style="opacity:0.467" fill="#949393" d="M 350.5,106.5 C 346.785,106.423 343.119,106.756 339.5,107.5C 341.29,106.003 343.456,105.336 346,105.5C 347.707,105.508 349.207,105.842 350.5,106.5 Z"/></g>
<g><path style="opacity:0.647" fill="#898989" d="M 97.5,103.5 C 96.9202,105.749 95.5869,107.415 93.5,108.5C 94.0798,106.251 95.4131,104.585 97.5,103.5 Z"/></g>
<g><path style="opacity:0.627" fill="#888888" d="M 397.5,105.5 C 399.446,106.035 400.446,107.368 400.5,109.5C 399.026,108.564 398.026,107.23 397.5,105.5 Z"/></g>
<g><path style="opacity:0.008" fill="#3a3a3a" d="M 418.5,107.5 C 419.833,107.5 420.5,108.167 420.5,109.5C 419.5,109.167 418.833,108.5 418.5,107.5 Z"/></g>
<g><path style="opacity:0.894" fill="#888888" d="M 400.5,109.5 C 402.446,110.035 403.446,111.368 403.5,113.5C 402.026,112.564 401.026,111.23 400.5,109.5 Z"/></g>
<g><path style="opacity:0.627" fill="#878787" d="M 90.5,112.5 C 90.2624,114.404 89.2624,115.738 87.5,116.5C 87.7376,114.596 88.7376,113.262 90.5,112.5 Z"/></g>
<g><path style="opacity:0.631" fill="#787878" d="M 293.5,114.5 C 293.027,115.906 292.027,116.573 290.5,116.5C 290.973,115.094 291.973,114.427 293.5,114.5 Z"/></g>
<g><path style="opacity:0.604" fill="#868686" d="M 358.5,112.5 C 359.972,114.117 360.639,116.117 360.5,118.5C 360.333,119.833 360.167,121.167 360,122.5C 359.617,123.056 359.117,123.389 358.5,123.5C 359.675,119.817 359.675,116.15 358.5,112.5 Z"/></g>
<g><path style="opacity:0.306" fill="#676767" d="M 421.5,111.5 C 423.914,112.911 425.581,114.911 426.5,117.5C 424.086,116.089 422.419,114.089 421.5,111.5 Z"/></g>
<g><path style="opacity:0.427" fill="#707070" d="M 87.5,116.5 C 87.573,118.027 86.9063,119.027 85.5,119.5C 85.427,117.973 86.0937,116.973 87.5,116.5 Z"/></g>
<g><path style="opacity:0.408" fill="#6e6e6e" d="M 85.5,119.5 C 85.573,121.027 84.9063,122.027 83.5,122.5C 83.427,120.973 84.0937,119.973 85.5,119.5 Z"/></g>
<g><path style="opacity:0.42" fill="#757575" d="M 427.5,119.5 C 428.906,119.973 429.573,120.973 429.5,122.5C 428.094,122.027 427.427,121.027 427.5,119.5 Z"/></g>
<g><path style="opacity:0.816" fill="#838383" d="M 410.5,123.5 C 412.446,124.035 413.446,125.368 413.5,127.5C 412.026,126.564 411.026,125.23 410.5,123.5 Z"/></g>
<g><path style="opacity:0.337" fill="#636363" d="M 83.5,122.5 C 83.573,124.027 82.9063,125.027 81.5,125.5C 81.427,123.973 82.0937,122.973 83.5,122.5 Z"/></g>
<g><path style="opacity:0.42" fill="#757575" d="M 429.5,122.5 C 430.906,122.973 431.573,123.973 431.5,125.5C 430.094,125.027 429.427,124.027 429.5,122.5 Z"/></g>
<g><path style="opacity:0.643" fill="#6e6e6e" d="M 358.5,124.5 C 358.326,126.861 357.993,129.194 357.5,131.5C 358.5,131.5 359.5,131.5 360.5,131.5C 359.081,132.451 357.415,132.784 355.5,132.5C 355.98,129.557 356.98,126.89 358.5,124.5 Z"/></g>
<g><path style="opacity:0.306" fill="#585858" d="M 431.5,125.5 C 433.262,126.262 434.262,127.596 434.5,129.5C 432.738,128.738 431.738,127.404 431.5,125.5 Z"/></g>
<g><path style="opacity:0.886" fill="#9f9f9f" d="M 274.5,127.5 C 273.415,129.587 271.749,130.92 269.5,131.5C 270.585,129.413 272.251,128.08 274.5,127.5 Z"/></g>
<g><path style="opacity:0.992" fill="#9a9a9a" d="M 80.5,127.5 C 80.4077,129.848 79.4077,131.514 77.5,132.5C 77.7497,130.326 78.7497,128.659 80.5,127.5 Z"/></g>
<g><path style="opacity:0.314" fill="#676767" d="M 434.5,130.5 C 435.906,130.973 436.573,131.973 436.5,133.5C 435.094,133.027 434.427,132.027 434.5,130.5 Z"/></g>
<g><path style="opacity:0.882" fill="#9d9d9d" d="M 269.5,131.5 C 268.415,133.587 266.749,134.92 264.5,135.5C 265.585,133.413 267.251,132.08 269.5,131.5 Z"/></g>
<g><path style="opacity:0.404" fill="#969696" d="M 446.5,175.5 C 446.5,176.167 446.167,176.5 445.5,176.5C 443.167,168.334 440.333,160.334 437,152.5C 431.169,140.499 425.169,128.832 419,117.5C 431.516,135.197 440.682,154.53 446.5,175.5 Z"/></g>
<g><path style="opacity:0.965" fill="#8e8e8e" d="M 76.5,134.5 C 76.4077,136.848 75.4077,138.514 73.5,139.5C 73.7497,137.326 74.7497,135.659 76.5,134.5 Z"/></g>
<g><path style="opacity:0.769" fill="#939393" d="M 264.5,135.5 C 263.089,137.914 261.089,139.581 258.5,140.5C 259.911,138.086 261.911,136.419 264.5,135.5 Z"/></g>
<g><path style="opacity:0.31" fill="#6d6d6d" d="M 439.5,139.5 C 440.906,139.973 441.573,140.973 441.5,142.5C 440.094,142.027 439.427,141.027 439.5,139.5 Z"/></g>
<g><path style="opacity:0.031" fill="#464646" d="M 442.5,144.5 C 444.104,145.287 444.771,146.62 444.5,148.5C 443.326,147.486 442.66,146.153 442.5,144.5 Z"/></g>
<g><path style="opacity:0.235" fill="#616161" d="M 423.5,145.5 C 424.906,145.973 425.573,146.973 425.5,148.5C 424.094,148.027 423.427,147.027 423.5,145.5 Z"/></g>
<g><path style="opacity:0.871" fill="#818181" d="M 69.5,147.5 C 69.8337,150.491 68.8337,152.824 66.5,154.5C 66.9348,151.843 67.9348,149.509 69.5,147.5 Z"/></g>
<g><path style="opacity:0.298" fill="#5e5e5e" d="M 425.5,149.5 C 427.104,150.287 427.771,151.62 427.5,153.5C 426.326,152.486 425.66,151.153 425.5,149.5 Z"/></g>
<g><path style="opacity:0.69" fill="#838383" d="M 252.5,145.5 C 245.5,153.167 238.167,160.5 230.5,167.5C 230.369,166.761 230.536,166.094 231,165.5C 237.756,158.239 244.922,151.572 252.5,145.5 Z"/></g>
<g><path style="opacity:0.008" fill="#414141" d="M 446.5,153.5 C 448.104,154.287 448.771,155.62 448.5,157.5C 447.326,156.486 446.66,155.153 446.5,153.5 Z"/></g>
<g><path style="opacity:0.216" fill="#5a5a5a" d="M 428.5,155.5 C 430.104,156.287 430.771,157.62 430.5,159.5C 429.326,158.486 428.66,157.153 428.5,155.5 Z"/></g>
<g><path style="opacity:0.608" fill="#656565" d="M 448.5,157.5 C 452.21,164.655 454.543,172.322 455.5,180.5C 452.592,173.102 450.259,165.436 448.5,157.5 Z"/></g>
<g><path style="opacity:1" fill="#e7e7e7" d="M 61.5,173.5 C 60.4929,173.548 60.1596,172.548 60.5,170.5C 60.5,170.167 60.5,169.833 60.5,169.5C 62.2132,168.365 62.8799,166.698 62.5,164.5C 63.7899,163.942 64.6232,162.942 65,161.5C 64.7364,165.713 63.5697,169.713 61.5,173.5 Z"/></g>
<g><path style="opacity:0.588" fill="#979797" d="M 66.5,154.5 C 66.3016,156.575 66.1349,158.575 66,160.5C 67.02,159.109 67.8534,157.609 68.5,156C 69.1186,155.634 69.4519,155.967 69.5,157C 67.054,162.848 64.7207,168.682 62.5,174.5C 62.5,173.833 62.1667,173.5 61.5,173.5C 63.5697,169.713 64.7364,165.713 65,161.5C 64.6232,162.942 63.7899,163.942 62.5,164.5C 63.3208,160.873 64.6541,157.54 66.5,154.5 Z"/></g>
<g><path style="opacity:0.961" fill="#bbbbbb" d="M 71.5,167.5 C 71.405,169.786 70.7384,171.786 69.5,173.5C 68.3501,174.85 67.6834,174.684 67.5,173C 68.47,169.756 69.6366,166.59 71,163.5C 71.49,164.793 71.6567,166.127 71.5,167.5 Z"/></g>
<g><path style="opacity:0.714" fill="#6f6f6f" d="M 62.5,164.5 C 62.8799,166.698 62.2132,168.365 60.5,169.5C 60.7959,167.597 61.4625,165.93 62.5,164.5 Z"/></g>
<g><path style="opacity:0.529" fill="#646464" d="M 60.5,170.5 C 60.1596,172.548 60.4929,173.548 61.5,173.5C 62.1667,173.5 62.5,173.833 62.5,174.5C 62.5979,176.553 61.9313,178.22 60.5,179.5C 59.1667,179.833 59.1667,180.167 60.5,180.5C 60.6716,181.492 60.3382,182.158 59.5,182.5C 59.5,181.833 59.1667,181.5 58.5,181.5C 57.8333,181.5 57.5,181.167 57.5,180.5C 57.7234,176.838 58.7234,173.505 60.5,170.5 Z"/></g>
<g><path style="opacity:0.494" fill="#8d8d8d" d="M 74.5,159.5 C 73.871,162.397 72.871,165.064 71.5,167.5C 71.6567,166.127 71.49,164.793 71,163.5C 69.6366,166.59 68.47,169.756 67.5,173C 67.6834,174.684 68.3501,174.85 69.5,173.5C 69.405,175.786 68.7384,177.786 67.5,179.5C 67.6495,178.448 67.4828,177.448 67,176.5C 66.1553,178.611 65.322,180.611 64.5,182.5C 64.6716,181.508 64.3382,180.842 63.5,180.5C 65.6379,172.587 68.4712,164.921 72,157.5C 72.0748,159.935 72.9081,160.602 74.5,159.5 Z"/></g>
<g><path style="opacity:0.592" fill="#7a7a7a" d="M 224.5,173.5 C 223.92,175.749 222.587,177.415 220.5,178.5C 221.08,176.251 222.413,174.585 224.5,173.5 Z"/></g>
<g><path style="opacity:0.561" fill="#727272" d="M 218.5,180.5 C 217.92,182.749 216.587,184.415 214.5,185.5C 215.08,183.251 216.413,181.585 218.5,180.5 Z"/></g>
<g><path style="opacity:0.886" fill="#a8a8a8" d="M 67.5,179.5 C 65.4925,188.859 63.4925,198.193 61.5,207.5C 60.6981,208.952 60.1981,210.618 60,212.5C 60.1343,202.322 61.6343,192.322 64.5,182.5C 65.322,180.611 66.1553,178.611 67,176.5C 67.4828,177.448 67.6495,178.448 67.5,179.5 Z"/></g>
<g><path style="opacity:0.753" fill="#888888" d="M 438.5,185.5 C 439.117,185.611 439.617,185.944 440,186.5C 440.497,188.81 440.663,191.143 440.5,193.5C 439.469,191.039 438.802,188.373 438.5,185.5 Z"/></g>
<g><path style="opacity:0.478" fill="#606060" d="M 456.5,184.5 C 457.249,185.531 457.915,186.698 458.5,188C 458.272,188.399 457.938,188.565 457.5,188.5C 456.566,187.432 456.232,186.099 456.5,184.5 Z"/></g>
<g><path style="opacity:0.655" fill="#757575" d="M 212.5,187.5 C 212.262,189.404 211.262,190.738 209.5,191.5C 209.738,189.596 210.738,188.262 212.5,187.5 Z"/></g>
<g><path style="opacity:0.345" fill="#5d5d5d" d="M 63.5,180.5 C 64.3382,180.842 64.6716,181.508 64.5,182.5C 61.6343,192.322 60.1343,202.322 60,212.5C 60.1981,210.618 60.6981,208.952 61.5,207.5C 61.2101,214.016 60.5435,220.35 59.5,226.5C 59.6655,222.486 59.4988,218.486 59,214.5C 58.8091,216.708 58.3091,218.708 57.5,220.5C 57.6716,219.508 57.3382,218.842 56.5,218.5C 57.567,205.572 59.9004,192.906 63.5,180.5 Z"/></g>
<g><path style="opacity:0.569" fill="#7c7c7c" d="M 209.5,191.5 C 208.92,193.749 207.587,195.415 205.5,196.5C 206.08,194.251 207.413,192.585 209.5,191.5 Z"/></g>
<g><path style="opacity:0.365" fill="#5d5d5d" d="M 457.5,189.5 C 459.04,191.838 459.706,194.505 459.5,197.5C 458.232,195.095 457.565,192.428 457.5,189.5 Z"/></g>
<g><path style="opacity:0.6" fill="#6f6f6f" d="M 203.5,198.5 C 203.573,200.027 202.906,201.027 201.5,201.5C 201.427,199.973 202.094,198.973 203.5,198.5 Z"/></g>
<g><path style="opacity:0.78" fill="#878787" d="M 201.5,201.5 C 201.262,203.404 200.262,204.738 198.5,205.5C 198.738,203.596 199.738,202.262 201.5,201.5 Z"/></g>
<g><path style="opacity:0.718" fill="#acacac" d="M 446.5,175.5 C 449.347,183.537 451.514,191.87 453,200.5C 453.333,197.833 453.667,195.167 454,192.5C 455.867,200.405 457.034,208.405 457.5,216.5C 456.778,216.918 456.278,217.584 456,218.5C 455.83,229.341 455.33,240.008 454.5,250.5C 456.02,225.259 453.02,200.592 445.5,176.5C 446.167,176.5 446.5,176.167 446.5,175.5 Z"/></g>
<g><path style="opacity:0.58" fill="#818181" d="M 192.5,213.5 C 192.262,215.404 191.262,216.738 189.5,217.5C 189.738,215.596 190.738,214.262 192.5,213.5 Z"/></g>
<g><path style="opacity:0.49" fill="#7b7b7b" d="M 189.5,217.5 C 189.573,219.027 188.906,220.027 187.5,220.5C 187.427,218.973 188.094,217.973 189.5,217.5 Z"/></g>
<g><path style="opacity:0.78" fill="#868686" d="M 187.5,220.5 C 187.262,222.404 186.262,223.738 184.5,224.5C 184.738,222.596 185.738,221.262 187.5,220.5 Z"/></g>
<g><path style="opacity:0.478" fill="#5b5b5b" d="M 461.5,214.5 C 462.369,216.984 463.036,219.651 463.5,222.5C 463.457,223.416 463.124,224.083 462.5,224.5C 461.676,221.236 461.342,217.902 461.5,214.5 Z"/></g>
<g><path style="opacity:0.354" fill="#686868" d="M 441.5,198.5 C 443.077,203.234 443.911,208.234 444,213.5C 444.826,224.674 444.659,235.674 443.5,246.5C 443.828,230.253 443.161,214.253 441.5,198.5 Z"/></g>
<g><path style="opacity:0.745" fill="#aaaaaa" d="M 59.5,226.5 C 59.5,227.167 59.5,227.833 59.5,228.5C 58.6745,232.982 58.1745,237.649 58,242.5C 57.5003,235.174 57.3337,227.841 57.5,220.5C 58.3091,218.708 58.8091,216.708 59,214.5C 59.4988,218.486 59.6655,222.486 59.5,226.5 Z"/></g>
<g><path style="opacity:0.416" fill="#737373" d="M 184.5,224.5 C 184.573,226.027 183.906,227.027 182.5,227.5C 182.427,225.973 183.094,224.973 184.5,224.5 Z"/></g>
<g><path style="opacity:0.995" fill="#bebebe" d="M 54.5,214.5 C 54.1795,219.695 54.5128,224.695 55.5,229.5C 55.8368,233.308 55.3368,236.974 54,240.5C 53.1764,231.657 53.3431,222.99 54.5,214.5 Z"/></g>
<g><path style="opacity:0.38" fill="#6c6c6c" d="M 182.5,227.5 C 182.573,229.027 181.906,230.027 180.5,230.5C 180.427,228.973 181.094,227.973 182.5,227.5 Z"/></g>
<g><path style="opacity:0.132" fill="#272727" d="M 57.5,180.5 C 57.5,181.167 57.8333,181.5 58.5,181.5C 58.5,182.5 58.5,183.5 58.5,184.5C 56.2211,189.185 55.0544,194.185 55,199.5C 55.2784,198.584 55.7784,197.918 56.5,197.5C 55.7514,203.155 55.0848,208.822 54.5,214.5C 53.3431,222.99 53.1764,231.657 54,240.5C 55.3368,236.974 55.8368,233.308 55.5,229.5C 55.7244,225.821 56.0578,222.154 56.5,218.5C 57.3382,218.842 57.6716,219.508 57.5,220.5C 57.3337,227.841 57.5003,235.174 58,242.5C 58.1745,237.649 58.6745,232.982 59.5,228.5C 59.9204,235.284 59.4204,241.95 58,248.5C 56.1265,243.302 54.7932,243.635 54,249.5C 52.6487,251.019 51.1487,252.352 49.5,253.5C 48.2431,243.482 48.4098,233.482 50,223.5C 50.4673,233.912 51.3007,234.079 52.5,224C 51.1278,218.216 50.6278,212.383 51,206.5C 52.6145,197.563 54.7811,188.897 57.5,180.5 Z"/></g>
<g><path style="opacity:0.345" fill="#646464" d="M 180.5,230.5 C 180.573,232.027 179.906,233.027 178.5,233.5C 178.427,231.973 179.094,230.973 180.5,230.5 Z"/></g>
<g><path style="opacity:0.471" fill="#7f7f7f" d="M 177.5,235.5 C 177.573,237.027 176.906,238.027 175.5,238.5C 175.427,236.973 176.094,235.973 177.5,235.5 Z"/></g>
<g><path style="opacity:0.198" fill="#484848" d="M 462.5,225.5 C 463.166,230.322 463.499,235.322 463.5,240.5C 463.679,248.062 463.012,255.395 461.5,262.5C 462.315,250.185 462.649,237.852 462.5,225.5 Z"/></g>
<g><path style="opacity:0.369" fill="#6c6c6c" d="M 175.5,238.5 C 175.573,240.027 174.906,241.027 173.5,241.5C 173.427,239.973 174.094,238.973 175.5,238.5 Z"/></g>
<g><path style="opacity:0.416" fill="#747474" d="M 172.5,243.5 C 172.573,245.027 171.906,246.027 170.5,246.5C 170.427,244.973 171.094,243.973 172.5,243.5 Z"/></g>
<g><path style="opacity:1" fill="#9b9b9b" d="M 169.5,248.5 C 169.408,250.848 168.408,252.514 166.5,253.5C 166.75,251.326 167.75,249.659 169.5,248.5 Z"/></g>
<g><path style="opacity:0.163" fill="#5e5e5e" d="M 457.5,216.5 C 457.667,227.838 457.5,239.172 457,250.5C 456.794,258.126 455.627,265.46 453.5,272.5C 453.672,271.508 453.338,270.842 452.5,270.5C 452.387,263.745 453.053,257.078 454.5,250.5C 455.33,240.008 455.83,229.341 456,218.5C 456.278,217.584 456.778,216.918 457.5,216.5 Z"/></g>
<g><path style="opacity:0.243" fill="#585858" d="M 165.5,255.5 C 165.573,257.027 164.906,258.027 163.5,258.5C 163.427,256.973 164.094,255.973 165.5,255.5 Z"/></g>
<g><path style="opacity:0.91" fill="#878787" d="M 163.5,258.5 C 163.843,260.483 163.176,261.817 161.5,262.5C 161.66,260.847 162.326,259.514 163.5,258.5 Z"/></g>
<g><path style="opacity:0.235" fill="#5a5a5a" d="M 161.5,263.5 C 161.573,265.027 160.906,266.027 159.5,266.5C 159.427,264.973 160.094,263.973 161.5,263.5 Z"/></g>
<g><path style="opacity:0.733" fill="#7f7f7f" d="M 442.5,259.5 C 442.666,263.514 442.499,267.514 442,271.5C 441.722,272.416 441.222,273.082 440.5,273.5C 440.69,268.63 441.356,263.964 442.5,259.5 Z"/></g>
<g><path style="opacity:0.055" fill="#5b5b5b" d="M 461.5,262.5 C 461.611,263.117 461.944,263.617 462.5,264C 461.883,266.277 461.216,268.444 460.5,270.5C 460.5,269.833 460.5,269.167 460.5,268.5C 460.205,266.265 460.539,264.265 461.5,262.5 Z"/></g>
<g><path style="opacity:0.267" fill="#575757" d="M 168.5,268.5 C 167.674,271.485 166.341,274.151 164.5,276.5C 164.794,273.246 166.127,270.579 168.5,268.5 Z"/></g>
<g><path style="opacity:0.695" fill="#909090" d="M 460.5,268.5 C 460.5,269.167 460.5,269.833 460.5,270.5C 460.632,273.57 460.299,276.57 459.5,279.5C 458.388,281.599 457.721,283.933 457.5,286.5C 457.662,288.527 457.495,290.527 457,292.5C 456.139,295.731 454.972,298.731 453.5,301.5C 453.649,300.448 453.483,299.448 453,298.5C 452.237,301.063 451.737,301.063 451.5,298.5C 454.716,289.02 457.216,279.353 459,269.5C 459.383,268.944 459.883,268.611 460.5,268.5 Z"/></g>
<g><path style="opacity:0.165" fill="#565656" d="M 452.5,271.5 C 452.328,272.492 452.662,273.158 453.5,273.5C 453.784,275.415 453.451,277.081 452.5,278.5C 451.577,275.194 451.577,275.528 452.5,279.5C 452.737,280.791 452.404,281.791 451.5,282.5C 450.89,280.15 450.556,280.483 450.5,283.5C 449.566,284.568 449.232,285.901 449.5,287.5C 449.167,287.5 448.833,287.5 448.5,287.5C 449.214,281.906 450.547,276.573 452.5,271.5 Z"/></g>
<g><path style="opacity:0.776" fill="#7f7f7f" d="M 154.5,277.5 C 154.88,279.698 154.213,281.365 152.5,282.5C 152.796,280.597 153.463,278.93 154.5,277.5 Z"/></g>
<g><path style="opacity:0.012" fill="#393939" d="M 459.5,279.5 C 459.829,282.228 459.163,284.562 457.5,286.5C 457.721,283.933 458.388,281.599 459.5,279.5 Z"/></g>
<g><path style="opacity:0.243" fill="#5a5a5a" d="M 162.5,280.5 C 162.293,283.241 161.293,285.574 159.5,287.5C 159.707,284.759 160.707,282.426 162.5,280.5 Z"/></g>
<g><path style="opacity:0.961" fill="#949494" d="M 152.5,283.5 C 152.834,286.491 151.834,288.824 149.5,290.5C 149.935,287.843 150.935,285.509 152.5,283.5 Z"/></g>
<g><path style="opacity:0.361" fill="#666666" d="M 159.5,287.5 C 159.598,289.553 158.931,291.22 157.5,292.5C 157.402,290.447 158.069,288.78 159.5,287.5 Z"/></g>
<g><path style="opacity:0.016" fill="#4a4a4a" d="M 448.5,287.5 C 448.5,288.833 448.5,290.167 448.5,291.5C 447.596,292.209 447.263,293.209 447.5,294.5C 447.167,294.5 446.833,294.5 446.5,294.5C 446.41,291.848 447.076,289.515 448.5,287.5 Z"/></g>
<g><path style="opacity:0.773" fill="#7d7d7d" d="M 437.5,287.5 C 437.227,291.823 436.227,295.99 434.5,300C 433.482,304.259 431.815,308.092 429.5,311.5C 431.997,303.341 434.664,295.341 437.5,287.5 Z"/></g>
<g><path style="opacity:0.937" fill="#9c9c9c" d="M 450.5,283.5 C 450.833,283.5 451.167,283.5 451.5,283.5C 451.917,287.817 451.25,291.817 449.5,295.5C 449.5,294.167 449.5,292.833 449.5,291.5C 449.5,290.167 449.5,288.833 449.5,287.5C 450.434,286.432 450.768,285.099 450.5,283.5 Z"/></g>
<g><path style="opacity:0.671" fill="#717171" d="M 149.5,290.5 C 149.59,293.152 148.924,295.485 147.5,297.5C 147.41,294.848 148.076,292.515 149.5,290.5 Z"/></g>
<g><path style="opacity:0.475" fill="#6a6a6a" d="M 157.5,292.5 C 156.001,298.32 154.334,303.987 152.5,309.5C 152.789,303.328 154.456,297.662 157.5,292.5 Z"/></g>
<g><path style="opacity:0.035" fill="#575757" d="M 445.5,296.5 C 445.041,299.877 444.374,303.211 443.5,306.5C 442.596,307.209 442.263,308.209 442.5,309.5C 442.167,309.5 441.833,309.5 441.5,309.5C 442.057,304.835 443.39,300.502 445.5,296.5 Z"/></g>
<g><path style="opacity:0.561" fill="#7d7d7d" d="M 147.5,297.5 C 147.59,300.152 146.924,302.485 145.5,304.5C 145.41,301.848 146.076,299.515 147.5,297.5 Z"/></g>
<g><path style="opacity:0.008" fill="#424242" d="M 453.5,302.5 C 453.741,304.898 453.074,306.898 451.5,308.5C 451.595,306.214 452.262,304.214 453.5,302.5 Z"/></g>
<g><path style="opacity:0.008" fill="#4a4a4a" d="M 451.5,308.5 C 451.23,312.358 449.897,315.691 447.5,318.5C 448.321,314.873 449.654,311.54 451.5,308.5 Z"/></g>
<g><path style="opacity:0.251" fill="#5e5e5e" d="M 429.5,312.5 C 429.573,314.027 428.906,315.027 427.5,315.5C 427.427,313.973 428.094,312.973 429.5,312.5 Z"/></g>
<g><path style="opacity:0.329" fill="#5e5e5e" d="M 152.5,309.5 C 151.585,315.981 150.585,322.315 149.5,328.5C 149.5,327.167 149.5,325.833 149.5,324.5C 149.549,319.184 150.549,314.184 152.5,309.5 Z"/></g>
<g><path style="opacity:0.831" fill="#727272" d="M 341.5,314.5 C 343.223,313.193 345.057,313.193 347,314.5C 347.599,316.535 347.099,318.201 345.5,319.5C 345.5,317.833 345.5,316.167 345.5,314.5C 344.167,314.5 342.833,314.5 341.5,314.5 Z"/></g>
<g><path style="opacity:0.741" fill="#9a9a9a" d="M 341.5,314.5 C 339.431,317.573 336.764,319.906 333.5,321.5C 335.569,318.427 338.236,316.094 341.5,314.5 Z"/></g>
<g><path style="opacity:0.267" fill="#666666" d="M 427.5,315.5 C 426.958,318.912 425.625,321.912 423.5,324.5C 423.502,320.835 424.835,317.835 427.5,315.5 Z"/></g>
<g><path style="opacity:0.165" fill="#505050" d="M 447.5,319.5 C 447.771,321.38 447.104,322.713 445.5,323.5C 445.66,321.847 446.326,320.514 447.5,319.5 Z"/></g>
<g><path style="opacity:0.522" fill="#797979" d="M 448.5,291.5 C 448.833,291.5 449.167,291.5 449.5,291.5C 449.5,292.833 449.5,294.167 449.5,295.5C 442.667,320.166 431.334,342.5 415.5,362.5C 415.5,361.5 415.5,360.5 415.5,359.5C 416.833,359.167 416.833,358.833 415.5,358.5C 415.5,357.833 415.833,357.5 416.5,357.5C 417.167,357.5 417.5,357.167 417.5,356.5C 418.167,356.5 418.5,356.167 418.5,355.5C 419.338,355.158 419.672,354.492 419.5,353.5C 420.167,353.5 420.5,353.167 420.5,352.5C 421.338,352.158 421.672,351.492 421.5,350.5C 422.167,350.5 422.5,350.167 422.5,349.5C 423.833,349.167 423.833,348.833 422.5,348.5C 422.5,347.833 422.833,347.5 423.5,347.5C 424.167,347.5 424.5,347.167 424.5,346.5C 425.338,346.158 425.672,345.492 425.5,344.5C 426.833,344.167 426.833,343.833 425.5,343.5C 425.5,342.833 425.833,342.5 426.5,342.5C 427.833,342.167 427.833,341.833 426.5,341.5C 426.5,340.5 426.5,339.5 426.5,338.5C 431.71,328.812 436.71,319.146 441.5,309.5C 441.833,312.167 442.167,312.167 442.5,309.5C 443.404,308.791 443.737,307.791 443.5,306.5C 445.806,302.915 447.139,298.915 447.5,294.5C 448.404,293.791 448.737,292.791 448.5,291.5 Z M 440.5,312.5 C 439.972,313.847 439.805,315.181 440,316.5C 441.63,315.182 441.797,313.849 440.5,312.5 Z"/></g>
<g><path style="opacity:0.596" fill="#818181" d="M 325.5,327.5 C 324.738,329.262 323.404,330.262 321.5,330.5C 322.262,328.738 323.596,327.738 325.5,327.5 Z"/></g>
<g><path style="opacity:0.455" fill="#525252" d="M 78.5,339.5 C 77.6618,339.842 77.3284,340.508 77.5,341.5C 73.037,333.974 69.037,326.141 65.5,318C 66.4491,317.383 67.2825,317.549 68,318.5C 71.5266,325.553 75.0266,332.553 78.5,339.5 Z"/></g>
<g><path style="opacity:0.482" fill="#919191" d="M 149.5,324.5 C 149.5,325.833 149.5,327.167 149.5,328.5C 149.54,333.193 149.873,337.859 150.5,342.5C 149.778,342.082 149.278,341.416 149,340.5C 148.183,334.984 148.349,329.65 149.5,324.5 Z"/></g>
<g><path style="opacity:0.584" fill="#747474" d="M 143.5,313.5 C 142.733,323.815 142.399,334.148 142.5,344.5C 141.764,341.305 141.097,337.971 140.5,334.5C 141.146,327.329 142.146,320.329 143.5,313.5 Z"/></g>
<g><path style="opacity:0.098" fill="#444444" d="M 442.5,330.5 C 442.539,333.089 441.539,335.089 439.5,336.5C 439.992,334.181 440.992,332.181 442.5,330.5 Z"/></g>
<g><path style="opacity:0.306" fill="#696969" d="M 419.5,332.5 C 419.573,334.027 418.906,335.027 417.5,335.5C 417.427,333.973 418.094,332.973 419.5,332.5 Z"/></g>
<g><path style="opacity:0.667" fill="#7f7f7f" d="M 310.5,337.5 C 310.027,338.906 309.027,339.573 307.5,339.5C 307.973,338.094 308.973,337.427 310.5,337.5 Z"/></g>
<g><path style="opacity:0.314" fill="#656464" d="M 416.5,337.5 C 416.573,339.027 415.906,340.027 414.5,340.5C 414.427,338.973 415.094,337.973 416.5,337.5 Z"/></g>
<g><path style="opacity:0.439" fill="#777777" d="M 413.5,342.5 C 413.573,344.027 412.906,345.027 411.5,345.5C 411.427,343.973 412.094,342.973 413.5,342.5 Z"/></g>
<g><path style="opacity:0.706" fill="#858585" d="M 298.5,344.5 C 298.027,345.906 297.027,346.573 295.5,346.5C 295.973,345.094 296.973,344.427 298.5,344.5 Z"/></g>
<g><path style="opacity:0.922" fill="#bdbdbd" d="M 426.5,338.5 C 426.5,339.5 426.5,340.5 426.5,341.5C 426.5,341.833 426.5,342.167 426.5,342.5C 425.833,342.5 425.5,342.833 425.5,343.5C 425.5,343.833 425.5,344.167 425.5,344.5C 424.662,344.842 424.328,345.508 424.5,346.5C 423.833,346.5 423.5,346.833 423.5,347.5C 422.833,347.5 422.5,347.833 422.5,348.5C 422.5,348.833 422.5,349.167 422.5,349.5C 421.833,349.5 421.5,349.833 421.5,350.5C 420.662,350.842 420.328,351.508 420.5,352.5C 419.833,352.5 419.5,352.833 419.5,353.5C 418.662,353.842 418.328,354.508 418.5,355.5C 417.833,355.5 417.5,355.833 417.5,356.5C 417.167,356.5 416.833,356.5 416.5,356.5C 416.343,355.127 416.51,353.793 417,352.5C 420.421,347.929 423.588,343.263 426.5,338.5 Z"/></g>
<g><path style="opacity:0.659" fill="#6b6b6b" d="M 150.5,343.5 C 151.537,344.93 152.204,346.597 152.5,348.5C 150.787,347.365 150.12,345.698 150.5,343.5 Z"/></g>
<g><path style="opacity:0.435" fill="#797979" d="M 411.5,345.5 C 411.573,347.027 410.906,348.027 409.5,348.5C 409.427,346.973 410.094,345.973 411.5,345.5 Z"/></g>
<g><path style="opacity:0.706" fill="#7a7a7a" d="M 409.5,348.5 C 409.262,350.404 408.262,351.738 406.5,352.5C 406.738,350.596 407.738,349.262 409.5,348.5 Z"/></g>
<g><path style="opacity:0.827" fill="#787878" d="M 152.5,348.5 C 153.492,350.456 154.492,352.456 155.5,354.5C 153.025,353.313 152.025,351.313 152.5,348.5 Z"/></g>
<g><path style="opacity:0.286" fill="#4f4f4f" d="M 143.5,350.5 C 145.104,351.287 145.771,352.62 145.5,354.5C 144.326,353.486 143.66,352.153 143.5,350.5 Z"/></g>
<g><path style="opacity:0.475" fill="#787878" d="M 406.5,352.5 C 406.573,354.027 405.906,355.027 404.5,355.5C 404.427,353.973 405.094,352.973 406.5,352.5 Z"/></g>
<g><path style="opacity:0.855" fill="#767676" d="M 156.5,356.5 C 159.167,358.5 161.5,360.833 163.5,363.5C 160.167,362.167 157.833,359.833 156.5,356.5 Z"/></g>
<g><path style="opacity:0.847" fill="#818181" d="M 148.5,360.5 C 150.446,361.035 151.446,362.368 151.5,364.5C 150.026,363.564 149.026,362.23 148.5,360.5 Z"/></g>
<g><path style="opacity:0.129" fill="#5b5b5b" d="M 403.5,362.5 C 404.835,360.315 406.501,358.815 408.5,358C 407.589,360.415 405.922,361.915 403.5,362.5 Z"/></g>
<g><path style="opacity:0.741" fill="#848484" d="M 415.5,362.5 C 415.262,364.404 414.262,365.738 412.5,366.5C 412.738,364.596 413.738,363.262 415.5,362.5 Z"/></g>
<g><path style="opacity:0.655" fill="#787878" d="M 402.5,364.5 C 402.833,364.5 403.167,364.5 403.5,364.5C 403.262,366.404 402.262,367.738 400.5,368.5C 400.5,367.833 400.5,367.167 400.5,366.5C 401.167,366.5 401.5,366.167 401.5,365.5C 402.167,365.5 402.5,365.167 402.5,364.5 Z"/></g>
<g><path style="opacity:0.525" fill="#6d6c6c" d="M 151.5,364.5 C 154.118,366.452 156.452,368.785 158.5,371.5C 155.189,370.189 152.855,367.855 151.5,364.5 Z"/></g>
<g><path style="opacity:0.847" fill="#7f7e7e" d="M 167.5,366.5 C 168.71,366.932 169.71,367.599 170.5,368.5C 168.821,368.715 167.821,368.048 167.5,366.5 Z"/></g>
<g><path style="opacity:1" fill="#b9b9b9" d="M 397.5,365.5 C 398.5,365.5 399.5,365.5 400.5,365.5C 400.5,365.833 400.5,366.167 400.5,366.5C 396.878,368.787 393.545,371.453 390.5,374.5C 389.475,374.103 389.308,373.437 390,372.5C 392.37,369.961 394.87,367.628 397.5,365.5 Z"/></g>
<g><path style="opacity:0.835" fill="#979797" d="M 248.5,366.5 C 245.374,368.99 241.708,370.323 237.5,370.5C 240.939,368.796 244.605,367.462 248.5,366.5 Z"/></g>
<g><path style="opacity:0.259" fill="#606060" d="M 404.5,355.5 C 402.192,358.815 399.859,362.149 397.5,365.5C 394.87,367.628 392.37,369.961 390,372.5C 389.308,373.437 389.475,374.103 390.5,374.5C 385.137,377.675 380.137,381.508 375.5,386C 372.966,387.934 370.299,389.268 367.5,390C 380.358,378.973 392.691,367.473 404.5,355.5 Z"/></g>
<g><path style="opacity:0.655" fill="#848484" d="M 412.5,366.5 C 411.585,368.754 410.252,370.754 408.5,372.5C 408.167,372.5 407.833,372.5 407.5,372.5C 408.419,369.911 410.086,367.911 412.5,366.5 Z"/></g>
<g><path style="opacity:0.533" fill="#777777" d="M 400.5,368.5 C 399.92,370.749 398.587,372.415 396.5,373.5C 397.08,371.251 398.413,369.585 400.5,368.5 Z"/></g>
<g><path style="opacity:0.51" fill="#787877" d="M 160.5,373.5 C 162.027,373.427 163.027,374.094 163.5,375.5C 161.973,375.573 160.973,374.906 160.5,373.5 Z"/></g>
<g><path style="opacity:0.443" fill="#737373" d="M 163.5,375.5 C 165.027,375.427 166.027,376.094 166.5,377.5C 164.973,377.573 163.973,376.906 163.5,375.5 Z"/></g>
<g><path style="opacity:0.671" fill="#757575" d="M 403.5,376.5 C 402.856,379.144 401.189,380.811 398.5,381.5C 398.5,380.833 398.5,380.167 398.5,379.5C 400.411,378.925 402.078,377.925 403.5,376.5 Z"/></g>
<g><path style="opacity:0.173" fill="#636363" d="M 421.5,359.5 C 407.078,380.589 389.078,397.923 367.5,411.5C 374.934,405.911 382.267,400.078 389.5,394C 396.761,387.244 403.428,380.078 409.5,372.5C 413.5,368.167 417.5,363.833 421.5,359.5 Z"/></g>
<g><path style="opacity:0.702" fill="#727272" d="M 177.5,382.5 C 180.152,382.41 182.485,383.076 184.5,384.5C 181.848,384.59 179.515,383.924 177.5,382.5 Z"/></g>
<g><path style="opacity:0.122" fill="#2a2a2a" d="M 396.5,381.5 C 397.167,381.5 397.833,381.5 398.5,381.5C 397.5,383.167 396.167,384.5 394.5,385.5C 394.5,384.833 394.5,384.167 394.5,383.5C 395.167,383.5 395.5,383.167 395.5,382.5C 396.167,382.5 396.5,382.167 396.5,381.5 Z"/></g>
<g><path style="opacity:0.098" fill="#2d2d2d" d="M 392.5,385.5 C 393.167,385.5 393.833,385.5 394.5,385.5C 394.167,386.5 393.5,387.167 392.5,387.5C 392.5,386.833 392.5,386.167 392.5,385.5 Z"/></g>
<g><path style="opacity:0.549" fill="#7b7b7b" d="M 78.5,339.5 C 93.5975,363.602 112.264,384.602 134.5,402.5C 133.508,402.328 132.842,402.662 132.5,403.5C 109.911,386.579 91.5773,365.912 77.5,341.5C 77.3284,340.508 77.6618,339.842 78.5,339.5 Z"/></g>
<g><path style="opacity:0.753" fill="#717171" d="M 390.5,387.5 C 391.167,387.5 391.833,387.5 392.5,387.5C 392.144,389.19 391.144,390.19 389.5,390.5C 390.11,389.609 390.443,388.609 390.5,387.5 Z"/></g>
<g><path style="opacity:0.827" fill="#a0a0a0" d="M 382.5,387.5 C 381.089,389.914 379.089,391.581 376.5,392.5C 377.911,390.086 379.911,388.419 382.5,387.5 Z"/></g>
<g><path style="opacity:0.243" fill="#4b4b4b" d="M 389.5,390.5 C 389.167,391.5 388.5,392.167 387.5,392.5C 387.5,391.167 388.167,390.5 389.5,390.5 Z"/></g>
<g><path style="opacity:0.91" fill="#a2a2a2" d="M 376.5,392.5 C 375.415,394.587 373.749,395.92 371.5,396.5C 372.585,394.413 374.251,393.08 376.5,392.5 Z"/></g>
<g><path style="opacity:0.749" fill="#828282" d="M 387.5,392.5 C 386.415,394.587 384.749,395.92 382.5,396.5C 383.585,394.413 385.251,393.08 387.5,392.5 Z"/></g>
<g><path style="opacity:0.412" fill="#5e5e5e" d="M 382.5,396.5 C 381.738,398.262 380.404,399.262 378.5,399.5C 379.262,397.738 380.596,396.738 382.5,396.5 Z"/></g>
<g><path style="opacity:0.016" fill="#2f2f2f" d="M 374.5,399.5 C 374.842,398.662 375.508,398.328 376.5,398.5C 376.842,399.338 377.508,399.672 378.5,399.5C 377.564,400.974 376.23,401.974 374.5,402.5C 374.5,401.833 374.5,401.167 374.5,400.5C 375.833,400.167 375.833,399.833 374.5,399.5 Z"/></g>
<g><path style="opacity:0.676" fill="#666666" d="M 134.5,402.5 C 157.689,419.592 183.356,431.592 211.5,438.5C 210.432,439.434 209.099,439.768 207.5,439.5C 179.937,432.55 154.937,420.55 132.5,403.5C 132.842,402.662 133.508,402.328 134.5,402.5 Z"/></g>
<g><path style="opacity:0.631" fill="#878787" d="M 364.5,401.5 C 363.738,403.262 362.404,404.262 360.5,404.5C 361.262,402.738 362.596,401.738 364.5,401.5 Z"/></g>
<g><path style="opacity:0.035" fill="#2c2c2c" d="M 374.5,402.5 C 372.14,404.853 369.473,406.853 366.5,408.5C 366.5,407.833 366.5,407.167 366.5,406.5C 367.167,406.5 367.5,406.167 367.5,405.5C 368.492,405.672 369.158,405.338 369.5,404.5C 370.167,404.5 370.5,404.167 370.5,403.5C 371.833,403.167 373.167,402.833 374.5,402.5 Z"/></g>
<g><path style="opacity:0.995" fill="#c4c4c4" d="M 436.5,341.5 C 421.064,369.781 400.064,393.281 373.5,412C 368.28,415.393 362.947,418.56 357.5,421.5C 357.649,420.448 357.483,419.448 357,418.5C 356.282,419.451 355.449,419.617 354.5,419C 358.562,415.971 362.895,413.471 367.5,411.5C 389.078,397.923 407.078,380.589 421.5,359.5C 426.815,351.549 431.648,343.216 436,334.5C 436.654,333.304 437.154,333.304 437.5,334.5C 435.631,336.722 435.298,339.055 436.5,341.5 Z"/></g>
<g><path style="opacity:0.329" fill="#414141" d="M 160.5,400.5 C 165.806,403.488 171.139,406.488 176.5,409.5C 176.167,409.833 175.833,410.167 175.5,410.5C 170.531,408.016 165.531,405.516 160.5,403C 159.402,402.23 159.402,401.397 160.5,400.5 Z"/></g>
<g><path style="opacity:0.631" fill="#777777" d="M 355.5,407.5 C 355.027,408.906 354.027,409.573 352.5,409.5C 352.973,408.094 353.973,407.427 355.5,407.5 Z"/></g>
<g><path style="opacity:0.017" fill="#2b2b2b" d="M 361.5,408.5 C 361.842,407.662 362.508,407.328 363.5,407.5C 363.842,408.338 364.508,408.672 365.5,408.5C 365.027,409.906 364.027,410.573 362.5,410.5C 362.672,409.508 362.338,408.842 361.5,408.5 Z"/></g>
<g><path style="opacity:0.082" fill="#303030" d="M 360.5,410.5 C 361.167,410.5 361.833,410.5 362.5,410.5C 362.167,411.5 361.5,412.167 360.5,412.5C 360.5,411.833 360.5,411.167 360.5,410.5 Z"/></g>
<g><path style="opacity:0.007" fill="#2b2b2b" d="M 358.5,410.5 C 358.328,411.492 358.662,412.158 359.5,412.5C 359.027,413.906 358.027,414.573 356.5,414.5C 356.5,413.833 356.5,413.167 356.5,412.5C 357.167,412.5 357.5,412.167 357.5,411.5C 357.5,410.833 357.833,410.5 358.5,410.5 Z"/></g>
<g><path style="opacity:0.914" fill="#9a9a9a" d="M 352.5,409.5 C 351.972,410.721 351.305,411.887 350.5,413C 351.448,413.483 352.448,413.649 353.5,413.5C 347.818,417.008 341.818,420.008 335.5,422.5C 334.508,422.672 333.842,422.338 333.5,421.5C 335.849,419.659 338.515,418.326 341.5,417.5C 343.78,416.36 346.114,415.193 348.5,414C 349.598,413.23 349.598,412.397 348.5,411.5C 349.514,410.326 350.847,409.66 352.5,409.5 Z"/></g>
<g><path style="opacity:0.08" fill="#4f4f4f" d="M 348.5,411.5 C 349.598,412.397 349.598,413.23 348.5,414C 346.114,415.193 343.78,416.36 341.5,417.5C 342.746,414.357 345.08,412.357 348.5,411.5 Z"/></g>
<g><path style="opacity:0.569" fill="#696969" d="M 356.5,414.5 C 356.027,415.906 355.027,416.573 353.5,416.5C 353.973,415.094 354.973,414.427 356.5,414.5 Z"/></g>
<g><path style="opacity:0.486" fill="#616161" d="M 324.5,413.5 C 325.774,414.189 325.774,415.023 324.5,416C 320.268,417.799 315.935,419.299 311.5,420.5C 311.167,420.167 310.833,419.833 310.5,419.5C 315.151,417.289 319.818,415.289 324.5,413.5 Z"/></g>
<g><path style="opacity:0.998" fill="#d0d0d0" d="M 407.5,372.5 C 407.833,372.5 408.167,372.5 408.5,372.5C 408.833,372.5 409.167,372.5 409.5,372.5C 403.428,380.078 396.761,387.244 389.5,394C 382.267,400.078 374.934,405.911 367.5,411.5C 362.895,413.471 358.562,415.971 354.5,419C 355.449,419.617 356.282,419.451 357,418.5C 357.483,419.448 357.649,420.448 357.5,421.5C 325.908,439.812 291.908,448.479 255.5,447.5C 257.167,446.833 258.833,446.167 260.5,445.5C 261.833,445.5 263.167,445.5 264.5,445.5C 270.852,444.979 277.185,444.313 283.5,443.5C 285.099,443.768 286.432,443.434 287.5,442.5C 292.092,442.118 296.425,441.118 300.5,439.5C 296.66,440.335 292.994,440.335 289.5,439.5C 289.833,439.5 290.167,439.5 290.5,439.5C 291.791,439.737 292.791,439.404 293.5,438.5C 294.167,438.5 294.833,438.5 295.5,438.5C 296.791,438.737 297.791,438.404 298.5,437.5C 298.833,437.5 299.167,437.5 299.5,437.5C 300.492,437.672 301.158,437.338 301.5,436.5C 302.167,436.5 302.833,436.5 303.5,436.5C 304.492,436.672 305.158,436.338 305.5,435.5C 306.167,435.5 306.833,435.5 307.5,435.5C 308.492,435.672 309.158,435.338 309.5,434.5C 310.492,434.672 311.158,434.338 311.5,433.5C 312.5,433.5 313.5,433.5 314.5,433.5C 315.492,433.672 316.158,433.338 316.5,432.5C 317.167,432.5 317.5,432.167 317.5,431.5C 322.91,429.974 328.244,428.141 333.5,426C 340.067,422.549 346.734,419.382 353.5,416.5C 355.027,416.573 356.027,415.906 356.5,414.5C 358.027,414.573 359.027,413.906 359.5,412.5C 359.833,412.5 360.167,412.5 360.5,412.5C 361.5,412.167 362.167,411.5 362.5,410.5C 364.027,410.573 365.027,409.906 365.5,408.5C 365.833,408.5 366.167,408.5 366.5,408.5C 369.473,406.853 372.14,404.853 374.5,402.5C 376.23,401.974 377.564,400.974 378.5,399.5C 380.404,399.262 381.738,398.262 382.5,396.5C 384.749,395.92 386.415,394.587 387.5,392.5C 388.5,392.167 389.167,391.5 389.5,390.5C 391.144,390.19 392.144,389.19 392.5,387.5C 393.5,387.167 394.167,386.5 394.5,385.5C 396.167,384.5 397.5,383.167 398.5,381.5C 401.189,380.811 402.856,379.144 403.5,376.5C 404.5,374.833 405.833,373.5 407.5,372.5 Z"/></g>
<g><path style="opacity:0.459" fill="#5a5a5a" d="M 127.5,390.5 C 128.721,389.535 130.054,389.702 131.5,391C 157.585,412.541 187.251,426.874 220.5,434C 209.47,433.769 198.97,431.269 189,426.5C 187.612,427.554 186.112,427.72 184.5,427C 176.045,423.273 167.712,419.273 159.5,415C 154.397,410.35 148.397,406.017 141.5,402C 136.96,397.954 132.293,394.121 127.5,390.5 Z"/></g>
<g><path style="opacity:0.494" fill="#525252" d="M 333.5,421.5 C 333.842,422.338 334.508,422.672 335.5,422.5C 332.465,424.518 329.131,425.684 325.5,426C 327.74,423.714 330.407,422.214 333.5,421.5 Z"/></g>
<g><path style="opacity:0.124" fill="#484848" d="M 251.5,426.5 C 256.511,426.334 261.511,426.501 266.5,427C 263.861,428.118 261.027,428.618 258,428.5C 255.5,428.333 253,428.167 250.5,428C 251.056,427.617 251.389,427.117 251.5,426.5 Z"/></g>
<g><path style="opacity:0.452" fill="#5a5a5a" d="M 317.5,431.5 C 315.776,431.461 315.443,431.794 316.5,432.5C 316.158,433.338 315.492,433.672 314.5,433.5C 313.5,432.167 312.5,432.167 311.5,433.5C 310.508,433.328 309.842,433.662 309.5,434.5C 309.158,435.338 308.492,435.672 307.5,435.5C 305.952,434.266 305.285,434.266 305.5,435.5C 305.158,436.338 304.492,436.672 303.5,436.5C 301.952,435.266 301.285,435.266 301.5,436.5C 301.158,437.338 300.492,437.672 299.5,437.5C 296.857,436.493 296.523,436.493 298.5,437.5C 297.791,438.404 296.791,438.737 295.5,438.5C 292.645,437.367 291.979,437.367 293.5,438.5C 292.791,439.404 291.791,439.737 290.5,439.5C 286.528,438.577 286.194,438.577 289.5,439.5C 292.994,440.335 296.66,440.335 300.5,439.5C 296.425,441.118 292.092,442.118 287.5,442.5C 286.761,442.631 286.094,442.464 285.5,442C 289.226,440.957 288.893,440.457 284.5,440.5C 283.081,439.549 281.415,439.216 279.5,439.5C 277.585,439.784 275.919,439.451 274.5,438.5C 288.206,436.925 301.706,434.259 315,430.5C 316.07,430.528 316.903,430.861 317.5,431.5 Z"/></g>
<g><path style="opacity:0.302" fill="#757575" d="M 300.5,439.5 C 302.851,437.797 305.518,437.297 308.5,438C 305.937,439.079 303.271,439.579 300.5,439.5 Z"/></g>
<g><path style="opacity:0.157" fill="#404040" d="M 211.5,438.5 C 222.895,440.175 234.228,441.508 245.5,442.5C 242.287,442.19 239.287,442.523 236.5,443.5C 226.59,442.893 216.923,441.56 207.5,439.5C 209.099,439.768 210.432,439.434 211.5,438.5 Z"/></g>
<g><path style="opacity:0.408" fill="#656565" d="M 261.5,439.5 C 265.702,439.183 269.702,439.517 273.5,440.5C 271.167,440.5 268.833,440.5 266.5,440.5C 259.833,440.5 253.167,440.5 246.5,440.5C 237.301,440.427 237.301,439.76 246.5,438.5C 251.481,439.165 256.481,439.498 261.5,439.5 Z"/></g>
<g><path style="opacity:0.135" fill="#343434" d="M 261.5,439.5 C 265.634,438.515 269.968,438.182 274.5,438.5C 275.919,439.451 277.585,439.784 279.5,439.5C 279.5,439.833 279.5,440.167 279.5,440.5C 278.432,441.434 277.099,441.768 275.5,441.5C 275.158,440.662 274.492,440.328 273.5,440.5C 269.702,439.517 265.702,439.183 261.5,439.5 Z"/></g>
<g><path style="opacity:0.196" fill="#3f3f3f" d="M 246.5,440.5 C 253.167,440.5 259.833,440.5 266.5,440.5C 267.209,441.404 268.209,441.737 269.5,441.5C 268.081,442.451 266.415,442.784 264.5,442.5C 258.5,441.833 252.5,441.167 246.5,440.5 Z"/></g>
<g><path style="opacity:0.433" fill="#898989" d="M 279.5,440.5 C 281.167,440.5 282.833,440.5 284.5,440.5C 288.893,440.457 289.226,440.957 285.5,442C 286.094,442.464 286.761,442.631 287.5,442.5C 286.432,443.434 285.099,443.768 283.5,443.5C 282.551,442.848 281.385,442.514 280,442.5C 274.662,442.98 269.495,443.647 264.5,444.5C 255.083,444.805 245.75,444.472 236.5,443.5C 239.287,442.523 242.287,442.19 245.5,442.5C 251.833,442.5 258.167,442.5 264.5,442.5C 266.415,442.784 268.081,442.451 269.5,441.5C 271.5,441.5 273.5,441.5 275.5,441.5C 277.099,441.768 278.432,441.434 279.5,440.5 Z"/></g>
<g><path style="opacity:0.169" fill="#3b3b3b" d="M 283.5,443.5 C 277.185,444.313 270.852,444.979 264.5,445.5C 264.5,445.167 264.5,444.833 264.5,444.5C 269.495,443.647 274.662,442.98 280,442.5C 281.385,442.514 282.551,442.848 283.5,443.5 Z"/></g>
<g><path style="opacity:0.514" fill="#6e6e6e" d="M 260.5,445.5 C 258.833,446.167 257.167,446.833 255.5,447.5C 254.624,447.631 253.957,447.298 253.5,446.5C 255.743,445.526 258.076,445.192 260.5,445.5 Z"/></g>
</svg>
